<?xml version="1.0" encoding="utf-8"?>
<!-- Generator: Adobe Illustrator 21.0.0, SVG Export Plug-In . SVG Version: 6.00 Build 0)  -->
<svg version="1.1" id="Layer_1" xmlns="http://www.w3.org/2000/svg" xmlns:xlink="http://www.w3.org/1999/xlink" x="0px" y="0px"
	 viewBox="0 0 512 512" style="enable-background:new 0 0 512 512;" xml:space="preserve">
<style type="text/css">
	.st0{fill:#8E9AAA;}
	.st1{fill:#717B88;}
	.st2{fill:#CEE2F2;}
	.st3{fill:#A6C8E6;}
	.st4{fill:#F2F9FF;}
	.st5{fill:#34495E;}
	.st6{fill:#FFFFFF;}
	.st7{fill:#0684BA;}
	.st8{fill:#C1D354;}
	.st9{fill:#FF8E31;}
</style>
<circle class="st0" cx="256" cy="256" r="256"/>
<path class="st1" d="M511.8,263.2L391.9,143.3c-0.1-0.1-0.1-0.2-0.2-0.2l-1.3-1.3c-0.1-0.1-0.2-0.1-0.2-0.2
	c-1.1-0.7-2.4-1.1-3.7-1.1H125.6c-3.7,0-6.7,3-6.7,6.7v168.4c0,1.2,0.3,2.4,0.9,3.4l2.4,2.4l185.6,185.6
	C422.1,483.3,508.5,383.6,511.8,263.2z"/>
<polygon class="st2" points="291.7,366.3 220.3,366.3 229.3,322.1 282.6,322.1 "/>
<polygon class="st3" points="291.7,366.3 282.6,322.1 229.3,322.1 273.5,366.3 "/>
<rect x="201.1" y="366.3" class="st4" width="109.7" height="5.3"/>
<path class="st5" d="M125.6,140.4c-3.7,0-6.7,3-6.7,6.7v168.4c0,3.7,3,6.7,6.7,6.7h260.8c3.7,0,6.7-3,6.7-6.7V147.1
	c0-3.7-3-6.7-6.7-6.7L125.6,140.4L125.6,140.4z"/>
<rect x="132.8" y="154.2" class="st6" width="246.5" height="154"/>
<g>
	<rect x="146.5" y="168.5" class="st7" width="10.8" height="3.6"/>
	<rect x="146.5" y="185.7" class="st7" width="10.8" height="3.6"/>
</g>
<g>
	<rect x="160" y="168.5" class="st5" width="12.3" height="3.6"/>
	<rect x="160" y="185.7" class="st5" width="38.9" height="3.6"/>
</g>
<g>
	<rect x="173.7" y="168.5" class="st7" width="9.9" height="3.6"/>
	<rect x="157.2" y="175" class="st7" width="17.1" height="3.6"/>
	<rect x="157.2" y="205.3" class="st7" width="17.1" height="3.6"/>
	<rect x="157.2" y="244.6" class="st7" width="17.1" height="3.6"/>
	<rect x="157.2" y="211.9" class="st7" width="7.1" height="3.6"/>
	<rect x="178.4" y="205.3" class="st7" width="44.8" height="3.6"/>
	<rect x="175.6" y="225" class="st7" width="15.6" height="3.6"/>
	<rect x="176" y="238.1" class="st7" width="15.6" height="3.6"/>
	<rect x="176" y="290.4" class="st7" width="15.6" height="3.6"/>
</g>
<g>
	<rect x="195.3" y="225" class="st8" width="25.3" height="3.6"/>
	<rect x="195.3" y="238.1" class="st8" width="11" height="3.6"/>
	<rect x="188.6" y="251.1" class="st8" width="12.9" height="3.6"/>
	<rect x="188.6" y="277.3" class="st8" width="24.8" height="3.6"/>
	<rect x="196.7" y="290.4" class="st8" width="9.2" height="3.6"/>
	<rect x="259.6" y="264.2" class="st8" width="12.9" height="3.6"/>
</g>
<rect x="225.6" y="225" class="st5" width="14" height="3.6"/>
<rect x="242.2" y="225" class="st8" width="6.6" height="3.6"/>
<g>
	<rect x="228.4" y="205.3" class="st5" width="32.2" height="3.6"/>
	<rect x="267.1" y="205.3" class="st5" width="19.7" height="3.6"/>
	<rect x="157.2" y="192.2" class="st5" width="25.6" height="3.6"/>
	<rect x="157.2" y="198.8" class="st5" width="36.3" height="3.6"/>
	<rect x="166.9" y="211.9" class="st5" width="41.6" height="3.6"/>
	<rect x="166.9" y="257.7" class="st5" width="41.6" height="3.6"/>
	<rect x="180.1" y="264.2" class="st5" width="25.1" height="3.6"/>
	<rect x="180.1" y="283.9" class="st5" width="12" height="3.6"/>
	<rect x="205.9" y="283.9" class="st5" width="25.3" height="3.6"/>
	<rect x="213.4" y="290.4" class="st5" width="17.7" height="3.6"/>
	<rect x="217.5" y="264.2" class="st5" width="39.6" height="3.6"/>
	<rect x="217.5" y="277.3" class="st5" width="39.6" height="3.6"/>
</g>
<g>
	<rect x="166.9" y="218.4" class="st7" width="5.7" height="3.6"/>
	<rect x="166.9" y="231.5" class="st7" width="14.7" height="3.6"/>
	<rect x="166.9" y="251.1" class="st7" width="14.7" height="3.6"/>
	<rect x="166.9" y="264.2" class="st7" width="9.9" height="3.6"/>
	<rect x="166.9" y="277.3" class="st7" width="16.9" height="3.6"/>
	<rect x="166.9" y="283.9" class="st7" width="9.1" height="3.6"/>
	<rect x="195.3" y="283.9" class="st7" width="7.8" height="3.6"/>
	<rect x="207.9" y="264.2" class="st7" width="6.6" height="3.6"/>
</g>
<g>
	<rect x="175.6" y="218.4" class="st5" width="9.1" height="3.6"/>
	<rect x="175.6" y="270.8" class="st5" width="26" height="3.6"/>
	<rect x="205.3" y="270.8" class="st5" width="20.6" height="3.6"/>
	<rect x="227" y="270.8" class="st5" width="45.5" height="3.6"/>
</g>
<rect x="186.1" y="218.4" class="st8" width="7.4" height="3.6"/>
<rect x="195.3" y="218.4" class="st5" width="25.3" height="3.6"/>
<rect x="210.8" y="211.9" class="st8" width="7.4" height="3.6"/>
<rect x="225.6" y="211.9" class="st9" width="14" height="3.6"/>
<rect x="197.4" y="198.8" class="st5" width="36.3" height="3.6"/>
<g>
	<rect x="271.9" y="198.8" class="st9" width="11.3" height="3.6"/>
	<rect x="236.2" y="198.8" class="st9" width="22.7" height="3.6"/>
</g>
<g>
	<rect x="260.6" y="198.8" class="st8" width="7.4" height="3.6"/>
	<rect x="285.7" y="198.8" class="st8" width="7.4" height="3.6"/>
</g>
<rect x="191.2" y="192.2" class="st5" width="39.3" height="3.6"/>
<rect x="184.6" y="192.2" class="st7" width="4.7" height="3.6"/>
<rect x="176.6" y="175" class="st5" width="7" height="3.6"/>
<rect x="185.1" y="175" class="st8" width="5.6" height="3.6"/>
<polygon class="st5" points="336.4,255.9 336.4,253.2 335,253.2 335,251.8 333.7,251.8 333.7,250.4 332.3,250.4 332.3,249.1 
	330.9,249.1 330.9,247.7 329.6,247.7 329.6,246.4 328.2,246.4 328.2,245 326.9,245 326.9,243.6 325.5,243.6 325.5,242.3 
	324.1,242.3 324.1,240.9 322.8,240.9 322.8,239.6 321.4,239.6 321.4,238.2 320.1,238.2 320.1,261.3 322.8,261.3 322.8,260 
	324.1,260 324.1,258.6 325.5,258.6 325.5,257.2 326.9,257.2 326.9,260 328.2,260 328.2,262.7 329.6,262.7 329.6,264 332.3,264 
	332.3,262.7 333.7,262.7 333.7,260 332.3,260 332.3,257.2 330.9,257.2 330.9,255.9 "/>
</svg>
