<?xml version="1.0" encoding="utf-8"?>
<!-- Generator: Adobe Illustrator 21.0.0, SVG Export Plug-In . SVG Version: 6.00 Build 0)  -->
<svg version="1.1" id="Capa_1" xmlns="http://www.w3.org/2000/svg" xmlns:xlink="http://www.w3.org/1999/xlink" x="0px" y="0px"
	 viewBox="0 0 54 54" style="enable-background:new 0 0 54 54;" xml:space="preserve">
<style type="text/css">
	.st0{fill:#8E9AAA;}
	.st1{fill:#D2D5D7;}
	.st2{fill:#CC0038;}
	.st3{fill:#F9DA49;}
</style>
<g>
	<path class="st0" d="M41,10H13c-1.1,0-2-0.9-2-2V7c0-1.1,0.9-2,2-2h28c1.1,0,2,0.9,2,2v1C43,9.1,42.1,10,41,10z"/>
	<polygon class="st1" points="16,5 16,0 20,0 23,5 	"/>
	<g>
		<polygon class="st0" points="41,25 42,20 12,20 13,25 		"/>
		<polygon class="st0" points="14.9,45 16,54 39,54 40,45 		"/>
	</g>
	<polygon class="st2" points="42,45 13,45 11,25 43,25 	"/>
	<ellipse class="st3" cx="27" cy="35" rx="9" ry="6"/>
	<path class="st1" d="M43,20H11c-1.1,0-2-0.9-2-2v-6c0-1.1,0.9-2,2-2h32c1.1,0,2,0.9,2,2v6C45,19.1,44.1,20,43,20z"/>
</g>
</svg>
