<?xml version="1.0" encoding="utf-8"?>
<!-- Generator: Adobe Illustrator 21.0.0, SVG Export Plug-In . SVG Version: 6.00 Build 0)  -->
<svg version="1.1" id="Layer_1" xmlns="http://www.w3.org/2000/svg" xmlns:xlink="http://www.w3.org/1999/xlink" x="0px" y="0px"
	 viewBox="0 0 512 512" style="enable-background:new 0 0 512 512;" xml:space="preserve">
<style type="text/css">
	.st0{fill:#8E9AAA;}
	.st1{fill:#717B88;}
	.st2{fill:#666666;}
	.st3{fill:#21D0C3;}
	.st4{fill:#FFFFFF;}
	.st5{fill:#828282;}
	.st6{fill:#FAD24D;}
	.st7{fill:#FF5B62;}
	.st8{fill:#C9CACC;}
	.st9{fill:#CC0038;}
	.st10{fill:#B6B6B8;}
	.st11{fill:#C2C2C4;}
	.st12{fill:#ECF0F1;}
</style>
<circle class="st0" cx="256" cy="256" r="256"/>
<path class="st1" d="M256,407.3c100.7,0,182.3,6.4,182.3,14.4c0,7.9-81.6,14.4-182.3,14.4c-100.7,0-182.3-6.4-182.3-14.4
	C73.7,413.7,155.3,407.3,256,407.3z"/>
<path class="st2" d="M66,67.2h380c12.5,0,22.7,10.2,22.7,22.7V324H43.3V89.9C43.3,77.4,53.5,67.2,66,67.2z"/>
<path class="st3" d="M58.7,308.6h394.6V89.9c0-4-3.3-7.3-7.3-7.3H66c-4,0-7.3,3.3-7.3,7.3L58.7,308.6L58.7,308.6
	C58.7,308.6,58.7,308.6,58.7,308.6z"/>
<g>
	<path class="st4" d="M468.7,324v24.8c0,12.5-11.3,22.7-25,22.7H68.3c-13.8,0-25-10.2-25-22.7V324H468.7z"/>
	<path class="st4" d="M141.2,115.5h229.5h34.2c4.1,0,7.5,3.4,7.5,7.5v44.8v140.8H99.5l0-140.8v-44.8c0-4.1,3.4-7.5,7.5-7.5
		L141.2,115.5L141.2,115.5L141.2,115.5z"/>
</g>
<path class="st5" d="M107.1,115.5h297.9c4.1,0,7.5,3.4,7.5,7.5v15.1H99.5v-15.1C99.5,118.9,102.9,115.5,107.1,115.5z"/>
<path class="st4" d="M226.4,123.3H390c1.1,0,2,0.9,2,2v3.8c0,1.1-0.9,2-2,2H226.4c-1.1,0-2-0.9-2-2v-3.8
	C224.4,124.2,225.3,123.3,226.4,123.3z"/>
<path class="st3" d="M117.3,122c2.4,0,4.3,1.9,4.3,4.3c0,2.4-1.9,4.3-4.3,4.3c-2.4,0-4.3-1.9-4.3-4.3C113,123.9,114.9,122,117.3,122
	z"/>
<path class="st6" d="M134.4,122c2.4,0,4.3,1.9,4.3,4.3c0,2.4-1.9,4.3-4.3,4.3c-2.4,0-4.3-1.9-4.3-4.3C130.1,123.9,132,122,134.4,122
	z"/>
<path class="st7" d="M151.6,122c2.4,0,4.3,1.9,4.3,4.3c0,2.4-1.9,4.3-4.3,4.3c-2.4,0-4.3-1.9-4.3-4.3
	C147.2,123.9,149.2,122,151.6,122z"/>
<g>
	<path class="st8" d="M161,185.2v3.6h3.6v-3.6H161z M174.2,179.9v3.4c0,1.7-0.7,2.3-1.9,2.3s-1.9-0.6-1.9-2.3v-12.8
		c0-1.7,0.7-2.3,1.9-2.3c1.2,0,1.9,0.6,1.9,2.3v2.5h3.5v-2.3c0-3.8-1.9-6-5.6-6c-3.7,0-5.6,2.2-5.6,6v12.3c0,3.8,1.9,6,5.6,6
		s5.6-2.2,5.6-6v-3.2L174.2,179.9L174.2,179.9z M183.5,170.5c0-1.7,0.7-2.3,1.9-2.3s1.9,0.6,1.9,2.3v12.8c0,1.7-0.7,2.3-1.9,2.3
		s-1.9-0.6-1.9-2.3V170.5z M179.7,183.1c0,3.8,2,6,5.7,6c3.7,0,5.7-2.2,5.7-6v-12.3c0-3.8-2-6-5.7-6c-3.7,0-5.7,2.2-5.7,6V183.1z
		 M198.6,165.1h-5.2v23.7h3.3V172l2.8,16.8h3.5l2.6-17v17h3.5v-23.7h-5.2l-2.5,16.9L198.6,165.1z M161,225.9v3.6h3.6v-3.6H161z
		 M175.2,229.5h3.8v-23.7h-3.3V220l-3.8-14.2h-4.7v23.7h3.4v-17.2L175.2,229.5L175.2,229.5z M185.5,209.1h6.4v-3.4h-10.2v23.7h10.2
		v-3.4h-6.4v-7h5.1v-3.4h-5.1V209.1L185.5,209.1z M193.2,209.1h3.9v20.3h3.7v-20.3h3.9v-3.4h-11.5L193.2,209.1L193.2,209.1z
		 M161,266.6v3.6h3.6v-3.6H161z M167.3,270.2h3.7v-23.7h-3.7V270.2z M181.7,270.2h3.8v-23.7h-3.3v14.2l-3.8-14.2h-4.7v23.7h3.4V253
		L181.7,270.2z M191.9,249.8h6.1v-3.4h-9.9v23.7h3.7v-9.8h4.8V257h-4.8V249.8z M203.3,251.9c0-1.7,0.7-2.3,1.9-2.3s1.9,0.6,1.9,2.3
		v12.8c0,1.7-0.7,2.3-1.9,2.3c-1.2,0-1.9-0.6-1.9-2.3V251.9z M199.6,264.5c0,3.8,2,6,5.7,6c3.7,0,5.7-2.2,5.7-6v-12.3
		c0-3.8-2-6-5.7-6c-3.7,0-5.7,2.2-5.7,6V264.5z"/>
	<path class="st8" d="M290.9,148.6c6.9,0,13.5,1.4,19.5,3.9c6.2,2.6,11.8,6.4,16.5,11.1c4.7,4.7,8.5,10.3,11,16.5
		c2.5,6,3.9,12.6,3.9,19.5c0,6.9-1.4,13.5-3.9,19.5c-2.6,6.2-6.4,11.8-11,16.5c-4.7,4.7-10.3,8.5-16.5,11.1
		c-6,2.5-12.6,3.9-19.5,3.9c-6.9,0-13.5-1.4-19.5-3.9c-6.2-2.6-11.8-6.4-16.5-11.1c-4.7-4.7-8.5-10.3-11.1-16.5
		c-2.5-6-3.9-12.6-3.9-19.5c0-6.9,1.4-13.5,3.9-19.5c2.6-6.2,6.4-11.8,11.1-16.5c4.7-4.7,10.3-8.5,16.5-11.1
		C277.5,150,284,148.6,290.9,148.6z M249.6,219h14.7c-1-2.7-1.8-5.4-2.4-8.1c-0.6-2.9-1-5.9-1.1-8.8h-15.5c0.2,2.9,0.6,5.7,1.3,8.4
		C247.3,213.5,248.3,216.3,249.6,219z M269.9,219h18.4v-16.9H266c0.1,2.8,0.5,5.6,1.1,8.3C267.8,213.3,268.7,216.2,269.9,219
		L269.9,219L269.9,219z M293.5,219H312c1.2-2.8,2.1-5.7,2.8-8.6c0.6-2.8,1-5.6,1.1-8.3h-22.3L293.5,219L293.5,219L293.5,219z
		 M317.6,219h14.7c1.3-2.7,2.3-5.5,3-8.5c0.7-2.7,1.1-5.6,1.3-8.4h-15.5c-0.1,3-0.5,5.9-1.1,8.8C319.4,213.6,318.6,216.3,317.6,219
		L317.6,219L317.6,219L317.6,219z M329.4,224.2h-14.1c-0.7,1.4-1.4,2.7-2.2,4c-0.9,1.5-1.9,3-3,4.5c-1.9,2.6-4,5.1-6.3,7.5
		c-1.4,1.4-2.8,2.8-4.4,4.2c3.9-0.7,7.6-1.9,11-3.6c4.8-2.3,9.1-5.3,12.8-9h0c1.4-1.4,2.7-2.9,3.9-4.5
		C327.9,226.3,328.7,225.3,329.4,224.2L329.4,224.2z M309.4,224.2h-15.9v18.4c2.2-1.7,4.1-3.5,6-5.4c2.4-2.4,4.5-4.9,6.4-7.5
		c0.8-1.1,1.6-2.3,2.4-3.6C308.7,225.5,309.1,224.8,309.4,224.2L309.4,224.2L309.4,224.2z M288.3,224.2h-15.9c0.4,0.7,0.8,1.3,1.2,2
		c0.8,1.2,1.5,2.4,2.4,3.6c1.9,2.6,4,5.1,6.4,7.5c1.8,1.8,3.8,3.6,6,5.4L288.3,224.2L288.3,224.2z M266.6,224.2h-14.1
		c0.7,1.1,1.4,2.2,2.2,3.2c1.2,1.6,2.5,3.1,3.9,4.5h0c3.7,3.7,8,6.8,12.8,9c3.5,1.6,7.2,2.9,11,3.6c-1.6-1.4-3-2.8-4.4-4.2
		c-2.3-2.4-4.4-4.9-6.3-7.5c-1.1-1.5-2.1-3-3-4.5C268,226.9,267.3,225.5,266.6,224.2L266.6,224.2L266.6,224.2z M252.5,174.8h14.4
		c0.6-1.2,1.3-2.5,2-3.7c0.9-1.4,1.8-2.9,2.8-4.2c1.9-2.7,4-5.3,6.4-7.8c1.5-1.5,3-3,4.6-4.5c-3.9,0.7-7.7,1.9-11.2,3.6
		c-4.8,2.3-9.1,5.3-12.8,9C256.3,169.5,254.2,172,252.5,174.8L252.5,174.8L252.5,174.8z M272.7,174.8h15.6v-18.3
		c-2.2,1.8-4.2,3.6-6,5.5c-2.4,2.5-4.6,5.1-6.5,7.8c-0.8,1.1-1.5,2.2-2.2,3.3C273.4,173.7,273,174.2,272.7,174.8z M293.5,174.8h15.6
		c-0.3-0.6-0.7-1.1-1-1.7c-0.7-1.1-1.4-2.2-2.2-3.3c-1.9-2.7-4-5.3-6.5-7.8c-1.8-1.9-3.9-3.8-6-5.5L293.5,174.8L293.5,174.8
		L293.5,174.8z M315,174.8h14.4c-0.7-1.1-1.4-2.2-2.2-3.2c-1.2-1.6-2.5-3-3.9-4.5c-3.7-3.7-8-6.8-12.8-9c-3.5-1.7-7.3-2.9-11.2-3.6
		c1.6,1.5,3.2,3,4.6,4.5c2.4,2.5,4.5,5.1,6.4,7.8c1,1.4,1.9,2.8,2.8,4.2C313.7,172.3,314.4,173.5,315,174.8L315,174.8L315,174.8z
		 M332.3,180h-14.9c1,2.7,1.9,5.4,2.5,8.1c0.7,2.9,1.1,5.9,1.2,8.8h15.5c-0.2-2.9-0.6-5.7-1.3-8.4
		C334.6,185.5,333.5,182.7,332.3,180L332.3,180z M311.7,180h-18.2v16.9h22.3c-0.2-2.8-0.6-5.5-1.2-8.3
		C313.9,185.7,313,182.8,311.7,180L311.7,180L311.7,180z M288.3,180h-18.2c-1.2,2.8-2.2,5.7-2.9,8.6c-0.7,2.8-1.1,5.5-1.2,8.3h22.3
		L288.3,180L288.3,180L288.3,180z M264.5,180h-14.9c-1.3,2.7-2.3,5.5-3,8.5c-0.7,2.7-1.1,5.6-1.3,8.4h15.5c0.2-2.9,0.6-5.9,1.2-8.8
		C262.7,185.3,263.5,182.6,264.5,180L264.5,180L264.5,180L264.5,180z"/>
</g>
<path class="st7" d="M370.1,297.9l8.7-17.6l18.9,18.4l6.1-6.3L384.9,274l17.4-9.2l-48.5-15L370.1,297.9L370.1,297.9L370.1,297.9z"/>
<g>
	<path class="st9" d="M124.8,162.1h27.3v27.3h-27.3V162.1z"/>
	<path class="st9" d="M124.8,202.6h27.3v27.3h-27.3V202.6z"/>
	<path class="st9" d="M124.8,246.3h27.3v27.3h-27.3V246.3z"/>
</g>
<path class="st4" d="M130.3,174.4l3.8,4.6l15.5-14.1l1.3,1.3l-17.2,18.5l-7.9-9.9L130.3,174.4L130.3,174.4L130.3,174.4z"/>
<path class="st0" d="M334.5,257c-0.7,0-1.3-0.7-1.3-1.4c0-0.7,0.7-1.3,1.4-1.3l10.6,0.5c0.7,0,1.3,0.7,1.3,1.4
	c0,0.7-0.7,1.3-1.4,1.3L334.5,257L334.5,257L334.5,257z M349.5,263.6c0.5-0.6,1.3-0.6,1.9-0.1c0.6,0.5,0.6,1.3,0.1,1.9l-10,11.3
	c-0.5,0.6-1.3,0.6-1.9,0.1c-0.6-0.5-0.6-1.3-0.1-1.9L349.5,263.6z M377.6,233.7c0.5-0.6,1.3-0.6,1.9-0.1c0.6,0.5,0.6,1.3,0.1,1.9
	l-10,11.3c-0.5,0.6-1.3,0.6-1.9,0.1c-0.6-0.5-0.6-1.3-0.1-1.9L377.6,233.7z M357.1,230.9c-0.1-0.7,0.3-1.4,1.1-1.6
	c0.7-0.1,1.4,0.3,1.6,1.1l2,10.5c0.1,0.7-0.3,1.4-1.1,1.6c-0.7,0.1-1.4-0.3-1.6-1.1L357.1,230.9z M338.4,236.7
	c-0.5-0.5-0.5-1.4,0-1.9c0.5-0.5,1.4-0.5,1.9,0l10.6,11c0.5,0.5,0.5,1.4,0,1.9c-0.5,0.5-1.4,0.5-1.9,0L338.4,236.7z"/>
<circle class="st10" cx="256" cy="346.8" r="7.8"/>
<path class="st11" d="M305.1,407.3l36.1,11.6H170.8l29.1-11.6v-35.7h105.1V407.3z"/>
<path class="st10" d="M305.1,407.3L200,371.6h105.1V407.3z"/>
<path class="st12" d="M200,407.3h105.1l36.1,11.6v5H256h-85.2v-5L200,407.3z"/>
</svg>
