<?xml version="1.0" encoding="utf-8"?>
<!-- Generator: Adobe Illustrator 21.0.0, SVG Export Plug-In . SVG Version: 6.00 Build 0)  -->
<svg version="1.1" id="Layer_1" xmlns="http://www.w3.org/2000/svg" xmlns:xlink="http://www.w3.org/1999/xlink" x="0px" y="0px"
	 viewBox="0 0 505 505" style="enable-background:new 0 0 505 505;" xml:space="preserve">
<style type="text/css">
	.st0{fill:#8E9AAA;}
	.st1{fill:#FFFFFF;}
	.st2{fill:#4CDBC4;}
	.st3{fill:#2C9984;}
	.st4{fill:#324A5E;}
	.st5{fill:#FF7058;}
</style>
<circle class="st0" cx="252.5" cy="252.5" r="252.5"/>
<path class="st1" d="M79.9,175v201.4c0,1.6,1.3,2.8,2.8,2.8h339.5c1.6,0,2.8-1.3,2.8-2.8V175H79.9z"/>
<path class="st2" d="M425.1,177.7v-34.2c0-9.7-7.9-17.6-17.6-17.6h-310c-9.7,0-17.6,7.9-17.6,17.6v34.2H425.1z"/>
<path class="st1" d="M284.7,164.3H115.4c-6.9,0-12.5-5.6-12.5-12.5l0,0c0-6.9,5.6-12.5,12.5-12.5h169.3c6.9,0,12.5,5.6,12.5,12.5
	l0,0C297.2,158.7,291.6,164.3,284.7,164.3z"/>
<g>
	<circle class="st3" cx="389.3" cy="152" r="12.8"/>
	<circle class="st3" cx="352.5" cy="152" r="12.8"/>
</g>
<g>
	<path class="st4" d="M116.3,156.4h-2.5l-3-8.7h2.5l1.7,5.3l1.7-5.3h2.4l1.7,5.3l1.7-5.3h2.5l-3,8.7h-2.5l-1.6-4.8L116.3,156.4z"/>
	<path class="st4" d="M131,156.4h-2.5l-3-8.7h2.5l1.7,5.3l1.7-5.3h2.4l1.7,5.3l1.7-5.3h2.5l-3,8.7h-2.5l-1.6-4.8L131,156.4z"/>
	<path class="st4" d="M145.6,156.4h-2.5l-3-8.7h2.5l1.7,5.3l1.7-5.3h2.4l1.7,5.3l1.7-5.3h2.5l-3,8.7h-2.5l-1.6-4.8L145.6,156.4z"/>
</g>
<polygon class="st5" points="371,330.8 389.3,312.5 359.3,282.4 386.7,262.4 302.1,243.6 320.9,328.2 341,300.7 "/>
<g>
	<rect x="102.9" y="284.5" class="st2" width="24.5" height="40.1"/>
	<rect x="148.4" y="249.9" class="st2" width="24.5" height="74.7"/>
	<rect x="194.1" y="264.9" class="st2" width="24.5" height="59.5"/>
	<rect x="239.6" y="229.6" class="st2" width="24.5" height="95"/>
</g>
</svg>
