<?xml version="1.0" encoding="utf-8"?>
<!-- Generator: Adobe Illustrator 21.0.0, SVG Export Plug-In . SVG Version: 6.00 Build 0)  -->
<svg version="1.1" id="Layer_1" xmlns="http://www.w3.org/2000/svg" xmlns:xlink="http://www.w3.org/1999/xlink" x="0px" y="0px"
	 viewBox="0 0 512 512" style="enable-background:new 0 0 512 512;" xml:space="preserve">
<style type="text/css">
	.st0{fill:#002833;}
	.st1{fill:#8E9AAA;}
	.st2{fill:#FFFFFF;}
</style>
<polygon class="st0" points="389.7,502.1 261.4,393.5 133,502.1 112.3,477.7 261.4,351.6 410.3,477.7 "/>
<rect x="21.4" y="30.7" class="st1" width="469.4" height="341.8"/>
<g>
	<rect y="9.9" class="st0" width="512" height="21.4"/>
	<rect y="372.6" class="st0" width="512" height="21.4"/>
	<rect x="165.4" y="452.6" class="st0" width="192" height="10.6"/>
</g>
<g>
	<path class="st2" d="M99.1,164l9.9,38.2c2.2,8.4,4.2,16.2,5.6,23.9h0.5c1.7-7.6,4.2-15.7,6.6-23.8l12.3-38.4h11.5l11.7,37.6
		c2.8,9,5,17,6.7,24.6h0.5c1.2-7.6,3.3-15.5,5.8-24.4L181,164h13.5l-24.2,75.2h-12.4l-11.5-35.9c-2.6-8.4-4.8-15.8-6.7-24.7h-0.4
		c-1.8,9-4.2,16.8-6.8,24.9l-12.2,35.8h-12.4L85.1,164H99.1L99.1,164z"/>
	<path class="st2" d="M215.4,164l9.9,38.2c2.2,8.4,4.2,16.2,5.6,23.9h0.5c1.7-7.6,4.2-15.7,6.6-23.8l12.3-38.4h11.5l11.7,37.6
		c2.8,9,5,17,6.7,24.6h0.5c1.2-7.6,3.3-15.5,5.8-24.4l10.7-37.8h13.5l-24.2,75.2h-12.4l-11.5-35.9c-2.6-8.4-4.8-15.8-6.7-24.7h-0.3
		c-1.8,9-4.2,16.8-6.8,24.9l-12.2,35.8h-12.4L201.4,164H215.4L215.4,164z"/>
	<path class="st2" d="M331.6,164l9.9,38.2c2.2,8.4,4.2,16.2,5.6,23.9h0.5c1.7-7.6,4.2-15.7,6.6-23.8l12.3-38.4h11.5l11.7,37.6
		c2.8,9,5,17,6.7,24.6h0.5c1.2-7.6,3.3-15.5,5.8-24.4l10.7-37.8H427l-24.2,75.2h-12.4l-11.5-35.9c-2.6-8.4-4.8-15.8-6.7-24.7h-0.3
		c-1.8,9-4.2,16.8-6.8,24.9l-12.2,35.8h-12.4L317.7,164H331.6L331.6,164z"/>
</g>
</svg>
