<?xml version="1.0" encoding="utf-8"?>
<!-- Generator: Adobe Illustrator 21.0.0, SVG Export Plug-In . SVG Version: 6.00 Build 0)  -->
<svg version="1.1" id="Layer_1" xmlns="http://www.w3.org/2000/svg" xmlns:xlink="http://www.w3.org/1999/xlink" x="0px" y="0px"
	 viewBox="0 0 512 512" style="enable-background:new 0 0 512 512;" xml:space="preserve">
<style type="text/css">
	.st0{fill:#8E9AAA;}
	.st1{fill:#717B88;}
	.st2{fill:#FFC473;}
	.st3{fill:#FFAA20;}
	.st4{fill:#FFDBA9;}
	.st5{fill:#703700;}
	.st6{fill:#9A4C00;}
	.st7{fill:#FFA91F;}
	.st8{fill:#CC0038;}
	.st9{fill:#FFFFFF;}
	.st10{fill:#E1E1E3;}
	.st11{fill:#C06200;}
	.st12{fill:#FF8900;}
</style>
<circle class="st0" cx="256" cy="256" r="256"/>
<path class="st1" d="M512,256c0-30.1-5.2-59-14.8-85.8l-49.6-49.6l-17.1-1.6L397,83.8l-14.5,33.3l-16.6,1.6l-59.2-64.1L289.5,53
	L256,17.8l-14.5,33.3l-36.2,3.5l26.8,26.2l-7.4,33.4l22.3,18.1c-21.9,1.5-40,8.8-54.6,20.1l-4.8-0.5l-21.9-31.3l-17.1-1.6L115,83.8
	l-14.5,33.3l-36.2,3.5l26.8,26.2l-7.4,33.4l68.9,67.8c-2.7,3.8-4.1,8.6-3.6,13.7l1.8,16.2c0.7,6.1,4,11.2,8.7,14.4l26.1,26.3
	c7.3,13,15.3,23,23.5,30.6c1.8,1.9,3.6,3.7,5.4,5.4c1.8,1.9,3.6,3.7,5.4,5.4c0.3,0.3,0.6,0.7,1,1v31h-34.8c-0.6,0-1.1,0-1.7,0
	c-0.6,0-1.1,0-1.6,0.1c-0.3,0-0.6,0-0.9,0c0,0-0.1,0-0.1,0c-0.2,0-0.4,0-0.5,0h-0.1c-0.6,0-1.1,0.1-1.7,0.2c-0.1,0-0.2,0-0.3,0
	c-0.1,0-0.2,0-0.3,0c0,0-0.1,0-0.1,0c-0.2,0-0.4,0-0.6,0.1c-0.1,0-0.2,0-0.3,0c-0.1,0-0.2,0-0.2,0c-0.4,0-0.8,0.1-1.1,0.2
	c-0.2,0-0.4,0-0.6,0.1c-0.1,0-0.1,0-0.1,0c-0.2,0-0.4,0.1-0.7,0.1c-0.1,0-0.2,0-0.3,0.1c-0.3,0-0.6,0.1-0.8,0.2
	c-0.3,0.1-0.6,0.1-0.8,0.2c-26.9,6-47.1,30.1-47.1,58.6v24.5c0.3,0.2,0.5,0.3,0.8,0.5c1.4,0.8,2.8,1.6,4.2,2.4
	c37,20.8,79.7,32.6,125.1,32.6C397.4,512,512,397.4,512,256z"/>
<rect x="220.8" y="357" class="st2" width="70.4" height="88.9"/>
<rect x="256" y="357" class="st3" width="35.2" height="88.9"/>
<path class="st4" d="M346.7,239.7c-3.8-55.7-51.3-87.4-90.7-87.4s-86.9,31.6-90.7,87.4c-10.2,1.9-17.4,11.4-16.3,21.9l1.8,16.2
	c1.2,11,11.2,19,22.1,17.8l1.9-0.2c22.5,58.5,58.8,73.6,81.2,77c22.4-3.4,58.7-18.5,81.2-77l1.9,0.2c11,1.2,21-6.8,22.1-17.8
	l1.8-16.2C364.1,251.2,356.9,241.6,346.7,239.7z"/>
<path class="st5" d="M318.2,160.9c0,0,49,13.3,27.3,98.3h-10.6C334.9,259.2,276.9,209.8,318.2,160.9z"/>
<path class="st6" d="M196.1,160.9c0,0-49,13.3-27.3,98.3h10.6C179.4,259.2,237.4,209.8,196.1,160.9z"/>
<rect x="192.7" y="255.4" class="st2" width="48.9" height="21.2"/>
<polygon class="st7" points="256,255.4 256,322.7 277.2,322.7 277.2,276.6 323.3,276.6 323.3,255.4 "/>
<path class="st8" d="M386.1,452v24.5C348,499.1,303.5,512,256,512s-92-12.9-130.1-35.5V452c0-28.6,20.2-52.6,47.1-58.6
	c0.3,0,0.5-0.1,0.8-0.2c0.3,0,0.6-0.1,0.8-0.2c0.1,0,0.2,0,0.3-0.1c0.2,0,0.4-0.1,0.7-0.1c0,0,0.1,0,0.1,0c0.2,0,0.4-0.1,0.6-0.1
	c0.4-0.1,0.8-0.1,1.1-0.2c0.1,0,0.1,0,0.2,0c0.1,0,0.2,0,0.3,0c0.2,0,0.4-0.1,0.6-0.1c0,0,0.1,0,0.1,0c0.1,0,0.2,0,0.3,0
	c0.1,0,0.2,0,0.3,0c0.6-0.1,1.1-0.1,1.7-0.2h0.1c0.2,0,0.4,0,0.5,0c0,0,0.1,0,0.1,0c0.3,0,0.6,0,0.9,0c0.6,0,1.1-0.1,1.6-0.1
	c0.6,0,1.1,0,1.7,0h34.8l35.2,53.7c0,0,1.7-2.6,4.3-6.6c0.4-0.6,0.8-1.2,1.2-1.8c0.6-0.9,1.3-1.9,2-3c0.7-1,1.4-2.1,2.1-3.3
	c1.5-2.3,3.1-4.7,4.7-7.2c0.8-1.2,1.6-2.5,2.5-3.7c9.1-13.8,18.4-28.1,18.4-28.2h34.8c0.5,0,0.9,0,1.4,0h0.3c0.1,0,0.2,0,0.3,0h0
	c0,0,0.1,0,0.1,0c0,0,0.1,0,0.1,0c0.2,0,0.4,0,0.6,0s0.4,0,0.6,0c0.3,0,0.6,0,0.9,0c0,0,0,0,0,0c0,0,0,0,0.1,0h0.1
	c0.1,0,0.2,0,0.3,0c0.1,0,0.2,0,0.3,0h0.1c0.6,0,1.1,0.1,1.7,0.2c0.1,0,0.1,0,0.2,0c0,0,0.1,0,0.1,0c0.1,0,0.2,0,0.3,0
	c0,0,0.1,0,0.1,0c0.2,0,0.4,0.1,0.6,0.1c0,0,0.1,0,0.1,0c0,0,0.1,0,0.1,0c0,0,0.1,0,0.1,0c0,0,0,0,0.1,0h0c0.2,0,0.5,0.1,0.7,0.1
	c0.1,0,0.2,0,0.2,0c0.2,0,0.5,0.1,0.7,0.1l0.1,0c0.2,0,0.4,0.1,0.6,0.1c0.4,0.1,0.7,0.1,1,0.2c0.2,0,0.4,0.1,0.6,0.1
	c0.1,0,0.2,0,0.3,0.1C365.9,399.4,386.1,423.4,386.1,452z"/>
<path class="st8" d="M386.1,452v24.5C348,499.1,303.5,512,256,512v-66.3c0,0,1.7-2.6,4.3-6.6c0.4-0.6,0.8-1.2,1.2-1.8
	c0.6-0.9,1.3-1.9,2-3c0.7-1,1.4-2.1,2.1-3.3c1.5-2.3,3.1-4.7,4.7-7.2c0.8-1.2,1.6-2.5,2.5-3.7c9.1-13.8,18.4-28.1,18.4-28.2h34.9
	c0.5,0,1,0,1.4,0h0.2c0.1,0,0.2,0,0.3,0h0c0,0,0.1,0,0.1,0c0,0,0.1,0,0.1,0c0.2,0,0.4,0,0.6,0c0.2,0,0.4,0,0.6,0c0.3,0,0.6,0,0.9,0
	c0,0,0,0,0,0c0,0,0,0,0.1,0c0,0,0,0,0.1,0c0.1,0,0.2,0,0.3,0c0.1,0,0.2,0,0.3,0h0.1c0.6,0,1.1,0.1,1.7,0.2c0.1,0,0.1,0,0.2,0
	c0,0,0.1,0,0.1,0c0.1,0,0.2,0,0.3,0c0,0,0.1,0,0.1,0c0.2,0,0.4,0.1,0.6,0.1c0,0,0.1,0,0.1,0c0,0,0.1,0,0.1,0c0,0,0.1,0,0.1,0
	c0,0,0,0,0,0h0c0.2,0,0.5,0.1,0.7,0.1c0.1,0,0.2,0,0.2,0c0.2,0,0.5,0.1,0.7,0.1l0.1,0c0.2,0,0.4,0.1,0.6,0.1c0.4,0.1,0.7,0.1,1,0.2
	c0.2,0,0.4,0.1,0.6,0.1c0.1,0,0.2,0,0.3,0.1C365.9,399.4,386.1,423.4,386.1,452z"/>
<polygon class="st9" points="220.8,391.9 193,410.2 234.3,474.8 256,445.7 "/>
<polygon class="st10" points="291.2,391.9 319,410.2 277.7,474.8 256,445.7 "/>
<path class="st11" d="M168,240.4c0,0,59.7,11.4,119.5-27.7S316.2,132,256,132c-64.2,0-97.8,45.9-110.5,103.7
	C145.5,235.6,152.8,237.8,168,240.4z"/>
<polygon class="st7" points="115,83.8 129.5,117.1 165.7,120.6 138.4,144.6 146.3,180.1 115,161.7 83.7,180.1 91.6,144.6 
	64.3,120.6 100.5,117.1 "/>
<polygon class="st12" points="397,83.8 411.5,117.1 447.7,120.6 420.4,144.6 428.3,180.1 397,161.7 365.7,180.1 373.6,144.6 
	346.3,120.6 382.5,117.1 "/>
<polygon class="st7" points="256,17.8 270.5,51.2 306.7,54.6 279.4,78.7 287.3,114.2 256,95.7 224.7,114.2 232.6,78.7 205.3,54.6 
	241.5,51.2 "/>
<polygon class="st12" points="279.4,78.7 287.3,114.2 256,95.7 256,17.8 270.5,51.2 306.7,54.6 "/>
</svg>
