<?xml version="1.0" encoding="utf-8"?>
<!-- Generator: Adobe Illustrator 21.0.0, SVG Export Plug-In . SVG Version: 6.00 Build 0)  -->
<svg version="1.1" id="Layer_1" xmlns="http://www.w3.org/2000/svg" xmlns:xlink="http://www.w3.org/1999/xlink" x="0px" y="0px"
	 viewBox="0 0 512 512" style="enable-background:new 0 0 512 512;" xml:space="preserve">
<style type="text/css">
	.st0{fill:#38454F;}
	.st1{fill:#B0B6BB;}
	.st2{fill:#8E9AAA;}
	.st3{fill:#99002A;}
	.st4{fill:#FF0047;}
	.st5{fill:#FF7FA3;}
</style>
<g>
	<path class="st0" d="M185.4,384v17.7h141.2V384h150.1V101.5c0-9.8-7.9-17.7-17.7-17.7H53c-9.8,0-17.7,7.9-17.7,17.7V384H185.4z"/>
	<path class="st1" d="M326.6,384v17.7H185.4V384H0v26.5c0,9.8,7.9,17.7,17.7,17.7h476.7c9.8,0,17.7-7.9,17.7-17.7V384H326.6z"/>
	<polygon class="st2" points="53,366.3 459,366.3 459,101.5 53,101.5 	"/>
	<g>
		<path class="st3" d="M291.3,348.7c-4.9,0-8.8-4-8.8-8.8v-26.5c0-4.9,3.9-8.8,8.8-8.8s8.8,4,8.8,8.8v26.5
			C300.1,344.7,296.2,348.7,291.3,348.7"/>
		<path class="st3" d="M326.6,348.7c-4.9,0-8.8-4-8.8-8.8v-61.8c0-4.9,3.9-8.8,8.8-8.8s8.8,4,8.8,8.8v61.8
			C335.4,344.7,331.5,348.7,326.6,348.7"/>
		<path class="st3" d="M361.9,348.7c-4.9,0-8.8-4-8.8-8.8v-44.1c0-4.9,3.9-8.8,8.8-8.8s8.8,4,8.8,8.8v44.1
			C370.8,344.7,366.8,348.7,361.9,348.7"/>
		<path class="st3" d="M397.2,348.7c-4.9,0-8.8-4-8.8-8.8v-106c0-4.9,3.9-8.8,8.8-8.8s8.8,4,8.8,8.8v105.9
			C406.1,344.7,402.1,348.7,397.2,348.7"/>
		<path class="st3" d="M432.6,348.7c-4.9,0-8.8-4-8.8-8.8v-70.6c0-4.9,3.9-8.8,8.8-8.8s8.8,4,8.8,8.8v70.6
			C441.4,344.7,437.4,348.7,432.6,348.7"/>
	</g>
	<path class="st4" d="M256,220.7c0,51.2-41.5,92.7-92.7,92.7s-92.7-41.5-92.7-92.7s41.5-92.7,92.7-92.7S256,169.5,256,220.7"/>
	<path class="st5" d="M159,128.1l-0.1,0.1v96.6c0,0.2,0.1,0.3,0.3,0.3h96.6l0.1-0.1C258.4,170.4,213.6,125.6,159,128.1"/>
	<g>
		<path class="st4" d="M388.4,181h-70.6c-4.9,0-8.8-4-8.8-8.8s3.9-8.8,8.8-8.8h70.6c4.9,0,8.8,4,8.8,8.8
			C397.2,177,393.3,181,388.4,181"/>
		<path class="st4" d="M432.6,181c-2.3,0-4.6-1-6.3-2.6c-0.4-0.4-0.8-0.9-1.1-1.3c-0.4-0.5-0.6-1.1-0.8-1.6
			c-0.3-0.5-0.4-1.1-0.5-1.6c-0.1-0.6-0.2-1.2-0.2-1.8c0-1.1,0.3-2.3,0.7-3.4c0.4-1.1,1.1-2,1.9-2.9c3.3-3.3,9.2-3.3,12.5,0
			c0.8,0.9,1.4,1.8,1.9,2.9c0.4,1.1,0.7,2.2,0.7,3.4c0,2.4-1,4.6-2.6,6.3C437.1,180,434.8,181,432.6,181"/>
		<path class="st4" d="M432.6,136.8h-26.5c-4.9,0-8.8-4-8.8-8.8s3.9-8.8,8.8-8.8h26.5c4.9,0,8.8,4,8.8,8.8
			C441.4,132.9,437.4,136.8,432.6,136.8"/>
		<path class="st4" d="M335.4,136.8h-17.7c-4.9,0-8.8-4-8.8-8.8s3.9-8.8,8.8-8.8h17.7c4.9,0,8.8,4,8.8,8.8S340.3,136.8,335.4,136.8"
			/>
		<path class="st4" d="M370.8,136.8c-1.1,0-2.3-0.3-3.4-0.7s-2-1.1-2.9-1.9c-0.8-0.9-1.4-1.9-1.9-2.9c-0.5-1.1-0.7-2.2-0.7-3.4
			c0-1.1,0.2-2.3,0.7-3.4c0.4-1.1,1.1-2,1.9-2.9c0.9-0.8,1.8-1.4,2.9-1.9c3.3-1.3,7.1-0.6,9.6,1.9c0.8,0.9,1.4,1.8,1.9,2.9
			c0.4,1.1,0.7,2.2,0.7,3.4c0,1.1-0.3,2.3-0.7,3.4c-0.4,1.1-1.1,2-1.9,2.9C375.3,135.9,373.1,136.8,370.8,136.8"/>
	</g>
</g>
</svg>
