<?xml version="1.0" encoding="utf-8"?>
<!-- Generator: Adobe Illustrator 21.0.0, SVG Export Plug-In . SVG Version: 6.00 Build 0)  -->
<svg version="1.1" id="Layer_1" xmlns="http://www.w3.org/2000/svg" xmlns:xlink="http://www.w3.org/1999/xlink" x="0px" y="0px"
	 viewBox="0 0 512 512" style="enable-background:new 0 0 512 512;" xml:space="preserve">
<style type="text/css">
	.st0{fill:#8E9AAA;}
	.st1{fill:#717B88;}
	.st2{fill:#C1D354;}
	.st3{fill:#0575A5;}
	.st4{fill:#FFFFFF;}
</style>
<circle class="st0" cx="256" cy="256" r="256"/>
<path class="st1" d="M501.3,329.3L347.4,175.4l-10.8-10.9c-24.8-22.2-57.3-36-93-36.5v34l-4.6-4.5c-28.4,0.6-54.2,11.6-73.8,29.4
	c-22.8,20.7-37.2,50.6-37.2,83.8c0,27.8,10,53.3,26.7,73l13.6,13.6l147.6,147.6C404.6,483.6,475.4,416.1,501.3,329.3z"/>
<path class="st2" d="M243.6,268.5V128.1c76.9,1.2,139.2,63.5,140.4,140.4L243.6,268.5L243.6,268.5z"/>
<path class="st3" d="M246.8,273h137.2c-0.6,36.4-14.8,70.7-40.2,97L246.8,273z"/>
<path class="st4" d="M239,157.5c-61.5,1.2-111,51.4-111,113.2c0,62.5,50.7,113.2,113.2,113.2c30.5,0,58.1-12,78.4-31.6L239,271.7
	L239,157.5L239,157.5z"/>
</svg>
